<svg width="255" height="210" viewBox="0 0 555 510" fill="none" xmlns="http://www.w3.org/2000/svg">
<path d="M501 251.361C501.072 311.127 477.924 368.594 436.421 411.681C433.919 414.295 431.35 416.847 428.712 419.335C424.695 423.149 420.542 426.815 416.254 430.334C376.143 463.313 326.069 481.846 274.109 482.941C272.378 482.98 270.64 483 268.896 483C227.457 483 175.337 460.911 128.039 430.334C124.125 427.804 120.247 425.216 116.403 422.569C114.607 421.343 112.819 420.1 111.04 418.839C92.7972 405.984 75.4815 391.867 59.2202 376.592C48.5733 366.62 38.5893 355.966 29.3318 344.697C-7.01119 299.959 -15.0271 259.647 36.7859 251.361C42.9204 250.383 48.8741 249.338 54.6471 248.225C63.0093 246.621 71.0122 244.889 78.6558 243.029C88.9517 240.532 98.6249 237.824 107.675 234.905C110.72 233.927 113.694 232.93 116.599 231.913C159.547 216.859 188.292 197.228 207.859 175.928C211.177 172.322 214.237 168.674 217.037 164.981C221.322 159.361 225.214 153.453 228.686 147.3C233.477 138.75 237.502 129.794 240.713 120.536L240.889 120.028C256.457 75.2112 251.721 33.6415 268.896 19.7284C342.314 -39.751 433.717 44.9532 476.619 144.842C478.781 149.875 480.815 154.939 482.721 160.033C483.576 162.308 484.402 164.588 485.197 166.872C487.287 172.824 489.184 178.792 490.887 184.775C491.54 187.057 492.163 189.337 492.755 191.614C493.389 194.072 493.997 196.524 494.558 198.975C498.733 216.924 501 234.625 501 251.361Z" fill="#F2F2F2"/>
<path d="M274 482.942C272.266 482.981 270.525 483 268.777 483C227.261 483 175.044 461.011 127.657 430.571C123.736 428.053 119.851 425.476 116 422.841L119.377 402.461L221.619 389L272.933 427.91L274 482.942Z" fill="#2F2E41"/>
<path d="M279.201 118H263.799C263.322 118 262.864 118.17 262.527 118.472C262.19 118.773 262 119.183 262 119.61V133.397C262 133.608 262.047 133.816 262.138 134.011C262.228 134.206 262.361 134.383 262.528 134.532C262.695 134.681 262.893 134.799 263.111 134.879C263.329 134.96 263.563 135.001 263.799 135H279.201C279.677 135 280.134 134.831 280.471 134.531C280.808 134.23 280.998 133.822 281 133.397V119.61C280.999 119.183 280.809 118.774 280.472 118.473C280.134 118.171 279.678 118.001 279.201 118Z" fill="white"/>
<path d="M279.201 142H263.799C263.322 142 262.864 142.19 262.527 142.527C262.19 142.864 262 143.322 262 143.799V159.208C262 159.444 262.047 159.677 262.138 159.895C262.228 160.113 262.361 160.311 262.528 160.477C262.695 160.643 262.893 160.775 263.111 160.865C263.329 160.955 263.563 161.001 263.799 161H279.201C279.677 161 280.134 160.812 280.471 160.476C280.808 160.14 280.998 159.684 281 159.208V143.799C280.999 143.322 280.809 142.865 280.472 142.528C280.134 142.191 279.678 142.001 279.201 142Z" fill="#E6E6E6"/>
<path d="M279.201 167H263.799C263.322 167 262.864 167.18 262.527 167.499C262.19 167.819 262 168.252 262 168.704V183.296C262 183.52 262.046 183.742 262.136 183.948C262.226 184.155 262.359 184.344 262.526 184.502C262.693 184.66 262.891 184.786 263.11 184.871C263.328 184.957 263.563 185 263.799 185H279.201C279.678 185 280.135 184.82 280.473 184.501C280.81 184.181 281 183.748 281 183.296V168.704C280.999 168.253 280.809 167.82 280.472 167.501C280.134 167.181 279.678 167.001 279.201 167Z" fill="#E6E6E6"/>
<path d="M280.972 193.403C280.895 193.01 280.676 192.655 280.353 192.399C280.03 192.143 279.622 192.002 279.201 192H263.799C263.322 192 262.864 192.18 262.527 192.499C262.19 192.819 262 193.252 262 193.704V208.296C262 208.52 262.046 208.741 262.136 208.948C262.226 209.155 262.359 209.343 262.526 209.502C262.693 209.66 262.891 209.786 263.11 209.871C263.328 209.957 263.563 210 263.799 210H279.201C279.678 210 280.135 209.82 280.473 209.501C280.81 209.181 281 208.748 281 208.296V193.704C281.001 193.603 280.992 193.502 280.972 193.403Z" fill="#E6E6E6"/>
<path d="M279.9 216.138C279.678 216.047 279.441 216 279.201 216H263.799C263.562 216 263.328 216.046 263.11 216.136C262.891 216.226 262.693 216.359 262.526 216.526C262.359 216.693 262.226 216.892 262.136 217.11C262.046 217.328 262 217.563 262 217.799V233.201C261.999 233.437 262.045 233.672 262.135 233.891C262.225 234.109 262.357 234.308 262.524 234.475C262.692 234.643 262.89 234.775 263.109 234.865C263.328 234.955 263.562 235.001 263.799 235H279.201C279.678 235 280.135 234.81 280.473 234.473C280.81 234.135 281 233.678 281 233.201V217.799C280.999 217.445 280.894 217.099 280.699 216.804C280.503 216.509 280.226 216.277 279.9 216.138Z" fill="#E6E6E6"/>
<path d="M309.296 118H294.704C294.252 118 293.819 118.17 293.499 118.472C293.18 118.773 293 119.183 293 119.61V133.397C293 133.608 293.045 133.816 293.13 134.011C293.216 134.206 293.342 134.383 293.5 134.532C293.658 134.681 293.846 134.799 294.053 134.879C294.259 134.96 294.481 135.001 294.704 135H309.296C309.747 135 310.179 134.831 310.499 134.531C310.818 134.23 310.998 133.822 311 133.397V119.61C310.999 119.183 310.819 118.774 310.499 118.473C310.18 118.171 309.747 118.001 309.296 118Z" fill="#E6E6E6"/>
<path d="M309.296 142H294.704C294.252 142 293.819 142.19 293.499 142.527C293.18 142.864 293 143.322 293 143.799V159.208C293 159.444 293.045 159.677 293.13 159.895C293.216 160.113 293.342 160.311 293.5 160.477C293.658 160.643 293.846 160.775 294.053 160.865C294.259 160.955 294.481 161.001 294.704 161H309.296C309.747 161 310.179 160.812 310.499 160.476C310.818 160.14 310.998 159.684 311 159.208V143.799C310.999 143.322 310.819 142.865 310.499 142.528C310.18 142.191 309.747 142.001 309.296 142Z" fill="#A5E653"/>
<path d="M309.296 167H294.704C294.252 167 293.819 167.18 293.499 167.499C293.18 167.819 293 168.252 293 168.704V183.296C293 183.52 293.043 183.742 293.129 183.948C293.214 184.155 293.34 184.344 293.498 184.502C293.656 184.66 293.845 184.786 294.052 184.871C294.258 184.957 294.48 185 294.704 185H309.296C309.748 185 310.181 184.82 310.501 184.501C310.82 184.181 311 183.748 311 183.296V168.704C310.999 168.253 310.819 167.82 310.499 167.501C310.18 167.181 309.747 167.001 309.296 167Z" fill="#A5E653"/>
<path d="M309.296 192H294.704C294.347 192 293.999 192.113 293.709 192.323C293.42 192.532 293.204 192.827 293.092 193.167C293.031 193.34 293 193.521 293 193.704V208.296C293 208.52 293.043 208.741 293.129 208.948C293.214 209.155 293.34 209.343 293.498 209.502C293.656 209.66 293.844 209.786 294.051 209.871C294.258 209.957 294.48 210 294.704 210H309.296C309.748 210 310.181 209.82 310.501 209.501C310.82 209.181 311 208.748 311 208.296V193.704C310.999 193.253 310.819 192.82 310.499 192.501C310.18 192.181 309.747 192.001 309.296 192Z" fill="#A5E653"/>
<path d="M309.296 216H294.704C294.48 216 294.258 216.046 294.052 216.136C293.845 216.226 293.656 216.359 293.498 216.526C293.34 216.693 293.214 216.892 293.129 217.11C293.043 217.328 293 217.563 293 217.799V233.201C293 233.437 293.043 233.671 293.129 233.89C293.214 234.108 293.34 234.307 293.498 234.474C293.656 234.641 293.845 234.774 294.052 234.864C294.258 234.954 294.48 235 294.704 235H309.296C309.748 235 310.181 234.81 310.501 234.473C310.82 234.135 311 233.678 311 233.201V217.799C311 217.322 310.82 216.864 310.501 216.527C310.181 216.19 309.748 216 309.296 216Z" fill="#E6E6E6"/>
<path d="M340.296 118H325.704C325.252 118 324.819 118.17 324.499 118.472C324.18 118.773 324 119.183 324 119.61V133.397C324 133.608 324.045 133.816 324.13 134.011C324.216 134.206 324.342 134.383 324.5 134.532C324.658 134.681 324.846 134.799 325.053 134.879C325.259 134.96 325.481 135.001 325.704 135H340.296C340.747 135 341.179 134.831 341.499 134.531C341.818 134.23 341.998 133.822 342 133.397V119.61C341.999 119.183 341.819 118.774 341.499 118.473C341.18 118.171 340.747 118.001 340.296 118Z" fill="#A5E653"/>
<path d="M340.296 142H325.704C325.252 142 324.819 142.19 324.499 142.527C324.18 142.864 324 143.322 324 143.799V159.208C324 159.444 324.045 159.677 324.13 159.895C324.216 160.113 324.342 160.311 324.5 160.477C324.658 160.643 324.846 160.775 325.053 160.865C325.259 160.955 325.481 161.001 325.704 161H340.296C340.747 161 341.179 160.812 341.499 160.476C341.818 160.14 341.998 159.684 342 159.208V143.799C341.999 143.322 341.819 142.865 341.499 142.528C341.18 142.191 340.747 142.001 340.296 142Z" fill="#A5E653"/>
<path d="M340.296 167H325.704C325.252 167 324.819 167.18 324.499 167.499C324.18 167.819 324 168.252 324 168.704V183.296C324 183.52 324.043 183.742 324.129 183.948C324.214 184.155 324.34 184.344 324.498 184.502C324.656 184.66 324.845 184.786 325.052 184.871C325.258 184.957 325.48 185 325.704 185H340.296C340.748 185 341.181 184.82 341.501 184.501C341.82 184.181 342 183.748 342 183.296V168.704C341.999 168.253 341.819 167.82 341.499 167.501C341.18 167.181 340.747 167.001 340.296 167Z" fill="#E6E6E6"/>
<path d="M340.296 192H325.704C325.252 192 324.819 192.18 324.499 192.499C324.18 192.819 324 193.252 324 193.704V208.296C324 208.52 324.043 208.741 324.129 208.948C324.214 209.155 324.34 209.343 324.498 209.502C324.656 209.66 324.845 209.786 325.052 209.871C325.258 209.957 325.48 210 325.704 210H340.296C340.748 210 341.181 209.82 341.501 209.501C341.82 209.181 342 208.748 342 208.296V193.704C341.999 193.253 341.819 192.82 341.499 192.501C341.18 192.181 340.747 192.001 340.296 192Z" fill="#A5E653"/>
<path d="M340.296 216H325.704C325.48 216 325.258 216.046 325.052 216.136C324.845 216.226 324.656 216.359 324.498 216.526C324.34 216.693 324.214 216.892 324.129 217.11C324.043 217.328 324 217.563 324 217.799V233.201C324 233.437 324.043 233.671 324.129 233.89C324.214 234.108 324.34 234.307 324.498 234.474C324.656 234.641 324.845 234.774 325.052 234.864C325.258 234.954 325.48 235 325.704 235H340.296C340.748 235 341.181 234.81 341.501 234.473C341.82 234.135 342 233.678 342 233.201V217.799C342 217.322 341.82 216.864 341.501 216.527C341.181 216.19 340.748 216 340.296 216Z" fill="#A5E653"/>
<path d="M370.296 118H355.704C355.252 118 354.819 118.17 354.499 118.472C354.18 118.773 354 119.183 354 119.61V133.397C354 133.608 354.044 133.816 354.13 134.011C354.216 134.206 354.342 134.383 354.5 134.532C354.658 134.681 354.846 134.799 355.053 134.879C355.259 134.96 355.481 135.001 355.704 135H370.296C370.747 135 371.179 134.831 371.499 134.531C371.818 134.23 371.998 133.822 372 133.397V119.61C371.999 119.183 371.819 118.774 371.499 118.473C371.18 118.171 370.747 118.001 370.296 118Z" fill="#A5E653"/>
<path d="M370.296 142H355.704C355.252 142 354.819 142.19 354.499 142.527C354.18 142.864 354 143.322 354 143.799V159.208C354 159.444 354.044 159.677 354.13 159.895C354.216 160.113 354.342 160.311 354.5 160.477C354.658 160.643 354.846 160.775 355.053 160.865C355.259 160.955 355.481 161.001 355.704 161H370.296C370.747 161 371.179 160.812 371.499 160.476C371.818 160.14 371.998 159.684 372 159.208V143.799C371.999 143.322 371.819 142.865 371.499 142.528C371.18 142.191 370.747 142.001 370.296 142Z" fill="white"/>
<path d="M370.296 167H355.704C355.252 167 354.819 167.18 354.499 167.499C354.18 167.819 354 168.252 354 168.704V183.296C354 183.52 354.043 183.742 354.129 183.949C354.214 184.155 354.34 184.344 354.498 184.502C354.657 184.66 354.845 184.786 355.052 184.871C355.259 184.957 355.48 185 355.704 185H370.296C370.748 185 371.181 184.82 371.501 184.501C371.82 184.181 372 183.748 372 183.296V168.704C371.999 168.253 371.819 167.82 371.499 167.501C371.18 167.181 370.747 167.001 370.296 167Z" fill="white"/>
<path d="M370.296 192H355.704C355.252 192 354.819 192.18 354.499 192.499C354.18 192.819 354 193.252 354 193.704V208.296C354 208.52 354.043 208.741 354.129 208.948C354.214 209.155 354.34 209.343 354.498 209.502C354.657 209.66 354.845 209.786 355.052 209.871C355.259 209.957 355.48 210 355.704 210H370.296C370.748 210 371.181 209.82 371.501 209.501C371.82 209.181 372 208.748 372 208.296V193.704C371.999 193.253 371.819 192.82 371.499 192.501C371.18 192.181 370.747 192.001 370.296 192Z" fill="#E6E6E6"/>
<path d="M370.296 216H355.704C355.48 216 355.259 216.046 355.052 216.136C354.845 216.226 354.657 216.359 354.498 216.526C354.34 216.693 354.214 216.892 354.129 217.11C354.043 217.328 354 217.563 354 217.799V233.201C354 233.437 354.043 233.671 354.129 233.89C354.214 234.108 354.34 234.307 354.498 234.474C354.657 234.641 354.845 234.774 355.052 234.864C355.259 234.954 355.48 235 355.704 235H370.296C370.748 235 371.181 234.81 371.501 234.473C371.82 234.135 372 233.678 372 233.201V217.799C372 217.322 371.82 216.864 371.501 216.527C371.181 216.19 370.748 216 370.296 216Z" fill="#A5E653"/>
<path d="M400.39 118H386.603C386.178 118.001 385.77 118.172 385.469 118.473C385.169 118.775 385 119.184 385 119.61V133.397C385 133.822 385.169 134.23 385.47 134.53C385.77 134.831 386.178 135 386.603 135H400.39C400.816 135 401.225 134.831 401.527 134.531C401.828 134.23 401.999 133.822 402 133.397V119.61C401.999 119.183 401.829 118.774 401.527 118.473C401.226 118.171 400.817 118.001 400.39 118Z" fill="white"/>
<path d="M400.39 142H386.603C386.178 142.002 385.77 142.192 385.469 142.529C385.169 142.866 385 143.323 385 143.799V159.208C385 159.683 385.169 160.139 385.47 160.475C385.77 160.811 386.178 161 386.603 161H400.39C400.816 161 401.225 160.812 401.527 160.476C401.828 160.14 401.999 159.684 402 159.208V143.799C401.999 143.322 401.829 142.865 401.527 142.528C401.226 142.191 400.817 142.001 400.39 142Z" fill="white"/>
<path d="M400.39 167H386.603C386.178 167.002 385.77 167.182 385.469 167.501C385.169 167.821 385 168.253 385 168.704V183.296C384.999 183.519 385.04 183.741 385.121 183.947C385.201 184.154 385.319 184.342 385.468 184.5C385.617 184.658 385.794 184.784 385.989 184.87C386.184 184.955 386.392 185 386.603 185H400.39C400.817 185 401.226 184.82 401.528 184.501C401.83 184.181 402 183.748 402 183.296V168.704C401.999 168.253 401.829 167.82 401.527 167.501C401.226 167.181 400.817 167.001 400.39 167Z" fill="white"/>
<path d="M400.39 192H386.603C386.178 192.002 385.77 192.182 385.469 192.501C385.169 192.821 385 193.253 385 193.704V208.296C384.999 208.519 385.04 208.741 385.121 208.947C385.201 209.154 385.319 209.342 385.468 209.5C385.617 209.658 385.794 209.784 385.989 209.87C386.184 209.955 386.392 210 386.603 210H400.39C400.817 210 401.226 209.82 401.528 209.501C401.83 209.181 402 208.748 402 208.296V193.704C401.999 193.253 401.829 192.82 401.527 192.501C401.226 192.181 400.817 192.001 400.39 192Z" fill="#A5E653"/>
<path d="M400.39 216H386.603C386.392 216 386.184 216.047 385.989 216.138C385.794 216.228 385.617 216.361 385.468 216.528C385.319 216.695 385.201 216.893 385.121 217.111C385.04 217.329 384.999 217.563 385 217.799V233.201C384.999 233.437 385.04 233.67 385.121 233.889C385.201 234.107 385.319 234.305 385.468 234.472C385.617 234.639 385.794 234.772 385.989 234.862C386.184 234.953 386.392 235 386.603 235H400.39C400.817 235 401.226 234.81 401.528 234.473C401.83 234.135 402 233.678 402 233.201V217.799C402 217.322 401.83 216.864 401.528 216.527C401.226 216.19 400.817 216 400.39 216Z" fill="#E6E6E6"/>
<path d="M431.296 118H416.698C416.247 118.001 415.815 118.172 415.497 118.473C415.178 118.775 415 119.184 415 119.61V133.397C415 133.822 415.179 134.23 415.497 134.53C415.816 134.831 416.248 135 416.698 135H431.296C431.747 135 432.179 134.831 432.499 134.531C432.818 134.23 432.998 133.822 433 133.397V119.61C432.999 119.183 432.819 118.774 432.499 118.473C432.18 118.171 431.747 118.001 431.296 118Z" fill="white"/>
<path d="M431.296 142H416.698C416.247 142.002 415.815 142.192 415.497 142.529C415.178 142.866 415 143.323 415 143.799V159.208C415 159.683 415.179 160.139 415.497 160.475C415.816 160.811 416.248 161 416.698 161H431.296C431.747 161 432.179 160.812 432.499 160.476C432.818 160.14 432.998 159.684 433 159.208V143.799C432.999 143.322 432.819 142.866 432.499 142.528C432.18 142.191 431.747 142.001 431.296 142Z" fill="white"/>
<path d="M431.296 167H416.698C416.247 167.002 415.815 167.182 415.497 167.501C415.178 167.821 415 168.253 415 168.704V183.296C414.999 183.519 415.043 183.741 415.128 183.947C415.213 184.154 415.338 184.342 415.495 184.5C415.653 184.658 415.841 184.784 416.047 184.87C416.253 184.955 416.474 185 416.698 185H431.296C431.748 185 432.181 184.82 432.5 184.501C432.82 184.181 433 183.748 433 183.296V168.704C432.999 168.253 432.819 167.82 432.499 167.501C432.18 167.181 431.747 167.001 431.296 167Z" fill="#A5E653"/>
<path d="M431.296 192H416.698C416.247 192.002 415.815 192.182 415.497 192.501C415.178 192.821 415 193.253 415 193.704V208.296C414.999 208.519 415.043 208.741 415.128 208.947C415.213 209.154 415.338 209.342 415.495 209.5C415.653 209.658 415.841 209.784 416.047 209.87C416.253 209.955 416.474 210 416.698 210H431.296C431.748 210 432.181 209.82 432.501 209.501C432.82 209.181 433 208.748 433 208.296V193.704C432.999 193.253 432.819 192.82 432.499 192.501C432.18 192.181 431.747 192.001 431.296 192Z" fill="#E6E6E6"/>
<path d="M431.296 216H416.698C416.474 216 416.253 216.047 416.047 216.138C415.841 216.228 415.653 216.361 415.495 216.528C415.338 216.695 415.213 216.893 415.128 217.111C415.043 217.329 414.999 217.563 415 217.799V233.201C414.999 233.437 415.043 233.67 415.128 233.889C415.213 234.107 415.338 234.305 415.495 234.472C415.653 234.639 415.841 234.772 416.047 234.862C416.253 234.953 416.474 235 416.698 235H431.296C431.748 235 432.181 234.81 432.501 234.473C432.82 234.135 433 233.678 433 233.201V217.799C433 217.322 432.82 216.864 432.501 216.527C432.181 216.19 431.748 216 431.296 216Z" fill="white"/>
<path d="M462.201 118H446.792C446.316 118.001 445.86 118.172 445.524 118.473C445.188 118.775 445 119.184 445 119.61V133.397C445 133.822 445.189 134.23 445.525 134.53C445.861 134.831 446.317 135 446.792 135H462.201C462.677 135 463.134 134.831 463.471 134.531C463.808 134.23 463.998 133.822 464 133.397V119.61C463.999 119.183 463.809 118.774 463.471 118.473C463.134 118.171 462.678 118.001 462.201 118Z" fill="#A5E653"/>
<path d="M462.201 142H446.792C446.316 142.002 445.86 142.192 445.524 142.529C445.188 142.866 445 143.323 445 143.799V159.208C445 159.683 445.189 160.139 445.525 160.475C445.861 160.811 446.317 161 446.792 161H462.201C462.677 161 463.134 160.812 463.471 160.476C463.808 160.14 463.998 159.684 464 159.208V143.799C463.999 143.322 463.809 142.866 463.472 142.528C463.134 142.191 462.678 142.001 462.201 142Z" fill="#A5E653"/>
<path d="M462.201 167H446.792C446.316 167.002 445.86 167.182 445.524 167.501C445.188 167.821 445 168.253 445 168.704V183.296C444.999 183.519 445.045 183.741 445.135 183.947C445.225 184.154 445.357 184.342 445.523 184.5C445.689 184.658 445.887 184.784 446.105 184.87C446.323 184.955 446.556 185 446.792 185H462.201C462.678 185 463.135 184.82 463.473 184.501C463.81 184.181 464 183.748 464 183.296V168.704C463.999 168.253 463.809 167.82 463.472 167.501C463.134 167.181 462.678 167.001 462.201 167Z" fill="#E6E6E6"/>
<path d="M462.201 192H446.792C446.316 192.002 445.86 192.182 445.524 192.501C445.188 192.821 445 193.253 445 193.704V208.296C444.999 208.519 445.045 208.741 445.135 208.947C445.225 209.154 445.357 209.342 445.523 209.5C445.689 209.658 445.887 209.784 446.105 209.87C446.323 209.955 446.556 210 446.792 210H462.201C462.678 210 463.135 209.82 463.473 209.501C463.81 209.181 464 208.748 464 208.296V193.704C463.999 193.253 463.809 192.82 463.472 192.501C463.134 192.181 462.678 192.001 462.201 192Z" fill="white"/>
<path d="M462.201 216H446.792C446.556 216 446.323 216.047 446.105 216.138C445.887 216.228 445.689 216.361 445.523 216.528C445.357 216.695 445.225 216.893 445.135 217.111C445.045 217.329 444.999 217.563 445 217.799V233.201C444.999 233.437 445.045 233.67 445.135 233.889C445.225 234.107 445.357 234.305 445.523 234.472C445.689 234.639 445.887 234.772 446.105 234.862C446.323 234.953 446.556 235 446.792 235H462.201C462.678 235 463.135 234.81 463.473 234.473C463.81 234.135 464 233.678 464 233.201V217.799C464 217.322 463.81 216.864 463.473 216.527C463.135 216.19 462.678 216 462.201 216Z" fill="#A5E653"/>
<path d="M492.296 118H477.698C477.247 118.001 476.815 118.172 476.497 118.473C476.178 118.775 476 119.184 476 119.61V133.397C476 133.822 476.179 134.23 476.497 134.53C476.816 134.831 477.248 135 477.698 135H492.296C492.747 135 493.179 134.831 493.499 134.531C493.818 134.23 493.998 133.822 494 133.397V119.61C493.999 119.183 493.819 118.774 493.499 118.473C493.18 118.171 492.747 118.001 492.296 118Z" fill="#A5E653"/>
<path d="M492.296 142H477.698C477.247 142.002 476.815 142.192 476.497 142.529C476.178 142.866 476 143.323 476 143.799V159.208C476 159.683 476.179 160.139 476.497 160.475C476.816 160.811 477.248 161 477.698 161H492.296C492.747 161 493.179 160.812 493.499 160.476C493.818 160.14 493.998 159.684 494 159.208V143.799C493.999 143.322 493.819 142.866 493.499 142.528C493.18 142.191 492.747 142.001 492.296 142Z" fill="#A5E653"/>
<path d="M492.296 167H477.698C477.247 167.002 476.815 167.182 476.497 167.501C476.178 167.821 476 168.253 476 168.704V183.296C475.999 183.519 476.043 183.741 476.128 183.947C476.213 184.154 476.338 184.342 476.495 184.5C476.653 184.658 476.841 184.784 477.047 184.87C477.253 184.955 477.474 185 477.698 185H492.296C492.748 185 493.181 184.82 493.501 184.501C493.82 184.181 494 183.748 494 183.296V168.704C493.999 168.253 493.819 167.82 493.499 167.501C493.18 167.181 492.747 167.001 492.296 167Z" fill="#E6E6E6"/>
<path d="M492.296 192H477.698C477.247 192.002 476.815 192.182 476.497 192.501C476.178 192.821 476 193.253 476 193.704V208.296C475.999 208.519 476.043 208.741 476.128 208.947C476.213 209.154 476.338 209.342 476.495 209.5C476.653 209.658 476.841 209.784 477.047 209.87C477.253 209.955 477.474 210 477.698 210H492.296C492.748 210 493.181 209.82 493.501 209.501C493.82 209.181 494 208.748 494 208.296V193.704C493.999 193.253 493.819 192.82 493.499 192.501C493.18 192.181 492.747 192.001 492.296 192Z" fill="#A5E653"/>
<path d="M492.296 216H477.698C477.474 216 477.253 216.047 477.047 216.138C476.841 216.228 476.653 216.361 476.495 216.528C476.338 216.695 476.213 216.893 476.128 217.111C476.043 217.329 475.999 217.563 476 217.799V233.201C475.999 233.437 476.043 233.67 476.128 233.889C476.213 234.107 476.338 234.305 476.495 234.472C476.653 234.639 476.84 234.772 477.047 234.862C477.253 234.953 477.474 235 477.698 235H492.296C492.748 235 493.181 234.81 493.501 234.473C493.82 234.135 494 233.678 494 233.201V217.799C494 217.322 493.82 216.864 493.501 216.527C493.181 216.19 492.748 216 492.296 216Z" fill="#A5E653"/>
<path d="M523.296 118H508.698C508.247 118.001 507.815 118.172 507.497 118.473C507.178 118.775 507 119.184 507 119.61V133.397C507 133.822 507.179 134.23 507.497 134.53C507.816 134.831 508.247 135 508.698 135H523.296C523.747 135 524.179 134.831 524.499 134.531C524.818 134.23 524.998 133.822 525 133.397V119.61C524.999 119.183 524.819 118.774 524.499 118.473C524.18 118.171 523.747 118.001 523.296 118Z" fill="#E6E6E6"/>
<path d="M523.296 142H508.698C508.247 142.002 507.815 142.192 507.497 142.529C507.178 142.866 507 143.323 507 143.799V159.208C507 159.683 507.179 160.139 507.497 160.475C507.816 160.811 508.247 161 508.698 161H523.296C523.747 161 524.179 160.812 524.499 160.476C524.818 160.14 524.998 159.684 525 159.208V143.799C524.999 143.322 524.819 142.866 524.499 142.528C524.18 142.191 523.747 142.001 523.296 142Z" fill="#A5E653"/>
<path d="M523.296 167H508.698C508.247 167.002 507.815 167.182 507.497 167.501C507.178 167.821 507 168.253 507 168.704V183.296C506.999 183.519 507.043 183.741 507.128 183.947C507.213 184.154 507.338 184.342 507.495 184.5C507.653 184.658 507.841 184.784 508.047 184.87C508.253 184.955 508.474 185 508.698 185H523.296C523.748 185 524.181 184.82 524.501 184.501C524.82 184.181 525 183.748 525 183.296V168.704C524.999 168.253 524.819 167.82 524.499 167.501C524.18 167.181 523.747 167.001 523.296 167Z" fill="#A5E653"/>
<path d="M523.296 192H508.698C508.247 192.002 507.815 192.182 507.497 192.501C507.178 192.821 507 193.253 507 193.704V208.296C506.999 208.519 507.043 208.741 507.128 208.947C507.213 209.154 507.338 209.342 507.495 209.5C507.653 209.658 507.84 209.784 508.047 209.87C508.253 209.955 508.474 210 508.698 210H523.296C523.748 210 524.181 209.82 524.501 209.501C524.82 209.181 525 208.748 525 208.296V193.704C524.999 193.253 524.819 192.82 524.499 192.501C524.18 192.181 523.747 192.001 523.296 192Z" fill="#A5E653"/>
<path d="M523.296 216H508.698C508.474 216 508.253 216.047 508.047 216.138C507.84 216.228 507.653 216.361 507.495 216.528C507.338 216.695 507.213 216.893 507.128 217.111C507.043 217.329 506.999 217.563 507 217.799V233.201C506.999 233.437 507.043 233.67 507.128 233.889C507.213 234.107 507.338 234.305 507.495 234.472C507.653 234.639 507.84 234.772 508.047 234.862C508.253 234.953 508.474 235 508.698 235H523.296C523.748 235 524.181 234.81 524.501 234.473C524.82 234.135 525 233.678 525 233.201V217.799C525 217.322 524.82 216.864 524.501 216.527C524.181 216.19 523.748 216 523.296 216Z" fill="#E6E6E6"/>
<path d="M553.296 118H538.698C538.247 118.001 537.815 118.172 537.497 118.473C537.179 118.775 537 119.184 537 119.61V133.397C537 133.822 537.179 134.23 537.497 134.53C537.816 134.831 538.248 135 538.698 135H553.296C553.747 135 554.179 134.831 554.499 134.531C554.818 134.23 554.998 133.822 555 133.397V119.61C554.999 119.183 554.819 118.774 554.499 118.473C554.18 118.171 553.747 118.001 553.296 118Z" fill="#E6E6E6"/>
<path d="M553.296 142H538.698C538.247 142.002 537.815 142.192 537.497 142.529C537.178 142.866 537 143.323 537 143.799V159.208C537 159.683 537.179 160.139 537.497 160.475C537.816 160.811 538.248 161 538.698 161H553.296C553.747 161 554.179 160.812 554.499 160.476C554.818 160.14 554.998 159.684 555 159.208V143.799C554.999 143.322 554.819 142.866 554.499 142.528C554.18 142.191 553.747 142.001 553.296 142Z" fill="#E6E6E6"/>
<path d="M553.296 167H538.698C538.247 167.002 537.815 167.182 537.497 167.501C537.178 167.821 537 168.253 537 168.704V183.296C536.999 183.519 537.043 183.741 537.128 183.947C537.213 184.154 537.338 184.342 537.496 184.5C537.653 184.658 537.841 184.784 538.047 184.87C538.253 184.955 538.474 185 538.698 185H553.296C553.748 185 554.181 184.82 554.501 184.501C554.82 184.181 555 183.748 555 183.296V168.704C554.999 168.253 554.819 167.82 554.499 167.501C554.18 167.181 553.747 167.001 553.296 167Z" fill="#A5E653"/>
<path d="M553.296 192H538.698C538.247 192.002 537.815 192.182 537.497 192.501C537.179 192.821 537 193.253 537 193.704V208.296C536.999 208.519 537.043 208.741 537.128 208.947C537.213 209.154 537.338 209.342 537.496 209.5C537.653 209.658 537.841 209.784 538.047 209.87C538.253 209.955 538.474 210 538.698 210H553.296C553.748 210 554.181 209.82 554.501 209.501C554.82 209.181 555 208.748 555 208.296V193.704C554.999 193.253 554.819 192.82 554.499 192.501C554.18 192.181 553.747 192.001 553.296 192Z" fill="#E6E6E6"/>
<path d="M553.296 216H538.698C538.474 216 538.253 216.047 538.047 216.138C537.841 216.228 537.653 216.361 537.496 216.528C537.338 216.695 537.213 216.893 537.128 217.111C537.043 217.329 536.999 217.563 537 217.799V233.201C536.999 233.437 537.043 233.67 537.128 233.889C537.213 234.107 537.338 234.305 537.496 234.472C537.653 234.639 537.841 234.772 538.047 234.862C538.253 234.953 538.474 235 538.698 235H553.296C553.748 235 554.181 234.81 554.501 234.473C554.82 234.135 555 233.678 555 233.201V217.799C555 217.322 554.82 216.864 554.501 216.527C554.181 216.19 553.748 216 553.296 216Z" fill="#E6E6E6"/>
<path d="M184.5 160C209.077 160 229 140.077 229 115.5C229 90.9233 209.077 71 184.5 71C159.923 71 140 90.9233 140 115.5C140 140.077 159.923 160 184.5 160Z" fill="#FFB6B6"/>
<path d="M223.737 82.7289C223.737 82.7289 235.397 60.1697 209.744 58.1188C209.744 58.1188 187.874 38.0417 165.582 54.4484C165.582 54.4484 153.423 54.4484 146.775 68.373C146.775 68.373 137.212 64.7026 135.11 74.5255C135.11 74.5255 128.112 95.034 135.11 113.492C142.108 131.949 144.432 134 144.432 134C144.432 134 132.933 95.3027 160.921 93.2518C188.909 91.2009 220.229 73.5002 222.561 96.0594C224.894 118.619 228.404 124.177 228.404 124.177C228.404 124.177 250.557 91.9578 223.737 82.7289Z" fill="#2F2E41"/>
<path d="M300 225.41L299.857 226.167L298.247 234.679L287.127 293.561L286.469 297.028L285.088 304.358L283.198 314.359L279.009 336.522L277.811 342.873L277.361 345.256L277.205 346.091L275.96 352.665L275.583 354.649L272.547 377.19L269.895 396.833L278.768 405.724L273.478 411.025L270.006 430.954L270.012 431H128.297C122.564 427.279 116.913 423.443 111.345 419.491L112.511 410.744C112.511 410.744 116.525 395.123 114.837 393.256C113.156 391.389 109.469 388.053 109.469 388.053L114.114 377.19L114.759 375.682L113.678 353.207L113.652 352.665L113.293 345.256L113.248 344.303L113.176 342.873L111.801 314.359L111.775 313.889L111.358 305.246L110.967 297.028L110.798 293.561L109.124 258.878L107.99 235.326L107 214.822L110.981 213.47L153.555 198.972L171.19 176L207.894 176.274L225.862 176.411L255.843 204.272L262.664 207.536L262.716 207.562L267.609 209.906L280.013 215.84L293.127 222.12L299.857 225.338L300 225.41Z" fill="#00A6C0"/>
<path d="M175.174 363.695C172.477 364.716 169.583 365.146 166.698 364.956C163.812 364.767 161.004 363.961 158.471 362.596C155.938 361.232 153.743 359.342 152.039 357.059C150.335 354.776 149.165 352.156 148.61 349.383L79 339.737L103.198 313L165.591 326.259C170.422 325.657 175.311 326.807 179.331 329.491C183.352 332.174 186.225 336.205 187.406 340.82C188.587 345.434 187.994 350.312 185.74 354.528C183.485 358.744 179.726 362.006 175.174 363.695V363.695Z" fill="#FFB6B6"/>
<path d="M144.111 314.07C142.83 312.445 141.018 311.324 138.993 310.907L110.634 305.004L107.721 304.4C106.029 304.046 104.43 303.339 103.029 302.324C101.629 301.309 100.458 300.009 99.5938 298.51C98.6973 296.936 98.1549 295.185 98.0046 293.379C97.8694 291.738 98.0658 290.086 98.5819 288.522L108.409 258.876L114.785 239.64C115.558 237.32 116.014 234.906 116.141 232.464C116.496 225.705 114.407 219.045 110.258 213.703C106.609 209.007 101.549 205.61 95.8241 204.015C90.0995 202.42 84.0142 202.711 78.4673 204.844C78.3051 204.903 78.1364 204.968 77.9743 205.033C73.9963 206.623 70.4422 209.118 67.5929 212.32C64.7437 215.522 62.6772 219.343 61.557 223.483L54.6294 248.712L40.3396 300.724C38.9092 305.935 38.6202 311.394 39.4925 316.728C40.3647 322.061 42.3776 327.143 45.3935 331.625C48.4093 336.107 52.3568 339.884 56.9658 342.697C61.5748 345.51 66.7365 347.293 72.0975 347.924L112.943 352.716L131.845 354.937C134.03 355.2 136.235 354.629 138.019 353.338C139.803 352.046 141.035 350.13 141.471 347.969C141.501 347.852 141.525 347.732 141.542 347.612L141.996 344.806L145.843 321.181L145.881 320.94C146.082 319.735 146.028 318.501 145.723 317.317C145.418 316.134 144.869 315.028 144.111 314.07Z" fill="#00A6C0"/>
<path d="M219.48 364.488C222.29 365.141 225.209 365.17 228.031 364.571C230.854 363.972 233.511 362.76 235.815 361.022C238.12 359.283 240.015 357.059 241.369 354.506C242.723 351.954 243.501 349.135 243.65 346.249L311 326.67L283.254 303L223.551 325.222C218.695 325.293 214.033 327.146 210.449 330.431C206.865 333.715 204.608 338.203 204.106 343.043C203.604 347.883 204.892 352.739 207.726 356.692C210.559 360.644 214.741 363.418 219.48 364.488V364.488Z" fill="#FFB6B6"/>
<path d="M344.872 282.746L312.726 208.871C310.097 202.806 305.401 197.867 299.472 194.931C297.639 194.03 295.714 193.329 293.731 192.841C293.423 192.763 293.116 192.691 292.808 192.632C288.602 191.716 284.24 191.797 280.071 192.868C276.259 193.845 272.698 195.614 269.617 198.059C266.537 200.504 264.007 203.569 262.193 207.056C262.173 207.085 262.156 207.116 262.141 207.147C260.114 211.062 259.037 215.396 258.995 219.802C258.953 224.208 259.947 228.563 261.899 232.515L262.298 233.311L285.014 278.867C285.79 280.425 286.227 282.129 286.297 283.867C286.366 285.606 286.067 287.339 285.419 288.954C284.771 290.569 283.788 292.028 282.535 293.237C281.281 294.446 279.787 295.376 278.148 295.968L276.553 296.542L247.86 306.892C245.706 307.659 243.936 309.23 242.92 311.275C241.904 313.32 241.722 315.679 242.413 317.855L242.484 318.083L250.527 343.783C250.567 343.901 250.606 344.018 250.652 344.136C250.722 344.357 250.81 344.573 250.913 344.782C251.768 346.696 253.279 348.243 255.174 349.145C257.069 350.046 259.224 350.242 261.251 349.699L276.736 345.618L279.894 344.782L319.88 334.237C325.141 332.849 330.04 330.342 334.241 326.887C338.442 323.433 341.845 319.113 344.219 314.223C346.592 309.333 347.879 303.988 347.992 298.555C348.105 293.123 347.04 287.73 344.872 282.746L344.872 282.746Z" fill="#00A6C0"/>
<path d="M29 345C38.2565 356.338 48.2394 367.058 58.8851 377.091H354.124C356.968 377.096 359.695 378.233 361.706 380.253C363.716 382.274 364.847 385.013 364.85 387.869L365.274 463C383.437 454.62 400.446 443.92 415.88 431.165C420.165 427.629 424.317 423.94 428.337 420.098C430.969 417.592 433.539 415.025 436.045 412.397C454.834 392.74 470.049 369.93 481 345H29Z" fill="#3F3D56"/>
<path d="M436 412C433.518 414.733 430.969 417.399 428.353 420H366V412H436Z" fill="white"/>
<path d="M299.555 166.897C299.243 166.323 298.783 165.844 298.221 165.51C297.66 165.176 297.018 165 296.365 165H81.6287C80.666 165.003 79.7435 165.386 79.0633 166.067C78.3831 166.747 78.0008 167.669 78 168.631V297H300V168.631C300.003 168.024 299.85 167.427 299.555 166.897Z" fill="#3F3D56"/>
<path d="M78 293V308.961C78 309.623 78.1292 310.278 78.3801 310.889C78.6311 311.501 78.9989 312.056 79.4626 312.524C79.9263 312.992 80.4768 313.363 81.0827 313.616C81.6885 313.87 82.3379 314 82.9937 314H164.719V345.5H163.633C163.548 345.5 163.464 345.517 163.385 345.55C163.306 345.583 163.235 345.631 163.174 345.692C163.114 345.752 163.066 345.825 163.034 345.904C163.001 345.983 162.984 346.069 162.984 346.154V348.345C162.984 348.431 163.001 348.517 163.034 348.596C163.066 348.675 163.114 348.748 163.174 348.808C163.235 348.869 163.306 348.917 163.385 348.95C163.464 348.983 163.548 349 163.633 349H214.367C214.452 349 214.536 348.983 214.615 348.95C214.694 348.917 214.765 348.869 214.826 348.808C214.886 348.748 214.934 348.675 214.966 348.596C214.999 348.517 215.016 348.431 215.016 348.345V346.154C215.016 346.069 214.999 345.983 214.966 345.904C214.934 345.825 214.886 345.752 214.826 345.692C214.765 345.631 214.694 345.583 214.615 345.55C214.536 345.517 214.452 345.5 214.367 345.5H213.281V314H295.006C295.662 314 296.311 313.87 296.917 313.616C297.523 313.363 298.074 312.992 298.537 312.524C299.001 312.056 299.369 311.501 299.62 310.889C299.871 310.278 300 309.623 300 308.961V293H78Z" fill="#3F3D56"/>
<path d="M186.5 248C197.822 248 207 239.046 207 228C207 216.954 197.822 208 186.5 208C175.178 208 166 216.954 166 228C166 239.046 175.178 248 186.5 248Z" fill="#A5E653"/>
<path d="M238 112.408H234.766C234.766 88.1055 210.573 72.18 186.166 72.1671C182.616 72.1568 179.074 72.4993 175.593 73.1894C171.674 73.9674 167.606 74.8996 163.609 76.1148C147.849 80.9175 133.234 90.2014 133.234 112.408C133.23 116.721 133.782 121.017 134.876 125.19L131.746 126C130.585 121.562 129.998 116.994 130 112.408C130 93.0046 138.013 79.6766 151.852 71.7299C159.128 67.5509 168.007 64.857 178.18 63.5454C182.413 62.9855 186.692 62.8563 190.952 63.1596C219.019 65.1656 238 86.5624 238 112.408Z" fill="#A5E653"/>
<path d="M244.873 113.977L243.525 104.735C243.193 102.401 241.981 100.252 240.105 98.6668C238.9 97.6337 237.458 96.8683 235.888 96.4284C234.318 95.9885 232.66 95.8857 231.041 96.1277L228.9 96.4007C228.314 96.4722 227.749 96.6511 227.238 96.9267C226.727 97.2024 226.281 97.5695 225.924 98.0067C225.564 98.4423 225.301 98.9398 225.149 99.4704C224.998 100.001 224.961 100.554 225.041 101.098L228.154 122.388C228.282 123.256 228.701 124.064 229.352 124.699C230.003 125.333 230.852 125.762 231.78 125.924C232.054 125.975 232.334 126 232.614 126C232.816 126 233.017 125.987 233.216 125.962L235.611 125.664C237.07 125.484 238.475 125.029 239.739 124.327C241.002 123.625 242.098 122.691 242.958 121.582C243.142 121.341 243.32 121.093 243.484 120.839C244.767 118.762 245.256 116.345 244.873 113.977Z" fill="#A5E653"/>
<path d="M227.228 97C226.672 97.2818 226.189 97.6976 225.818 98.2131C225.499 98.6467 225.266 99.1419 225.132 99.67C224.998 100.198 224.966 100.749 225.037 101.29L227.791 122.481C227.905 123.345 228.276 124.149 228.852 124.781C229.427 125.412 230.179 125.839 231 126L227.228 97Z" fill="white"/>
<path d="M244.845 114.882L243.193 105.295C242.785 102.874 241.3 100.644 239 99L242.799 120.973C242.855 121.326 242.971 121.671 243.142 122C244.714 119.845 245.314 117.338 244.845 114.882Z" fill="#3F3D56"/>
<path d="M233.885 121.54C234.777 121.419 235.226 119.294 234.887 116.795C234.548 114.295 233.549 112.367 232.656 112.488C231.764 112.609 231.315 114.733 231.654 117.233C231.993 119.733 232.992 121.661 233.885 121.54Z" fill="#3F3D56"/>
<path d="M231.927 109.795C232.82 109.673 233.269 107.549 232.929 105.049C232.59 102.549 231.592 100.621 230.699 100.742C229.806 100.863 229.357 102.988 229.696 105.488C230.036 107.987 231.034 109.916 231.927 109.795Z" fill="#3F3D56"/>
<path d="M244.325 114.362C245.218 114.241 245.667 112.116 245.327 109.617C244.988 107.117 243.99 105.189 243.097 105.31C242.204 105.431 241.755 107.556 242.094 110.055C242.434 112.555 243.432 114.483 244.325 114.362Z" fill="#3F3D56"/>
<path d="M185.573 71.3879C182.1 71.3785 178.634 71.6918 175.228 72.3233C171.393 73.0351 167.413 73.8881 163.503 75C157.397 74.7235 152.905 73.2528 152 70.9879C159.118 67.1641 167.806 64.6991 177.759 63.499C181.9 62.9867 186.088 62.8685 190.255 63.1461C190.696 63.3865 191.078 63.7111 191.374 64.0984C191.671 64.4857 191.876 64.927 191.976 65.3933C192.274 67.4406 189.762 69.6172 185.573 71.3879Z" fill="#3F3D56"/>
<path d="M144.883 135.581L139.669 114.98C139.483 114.237 139.07 113.562 138.482 113.041C137.894 112.52 137.157 112.176 136.364 112.051C136.14 112.018 135.913 112.001 135.687 112C135.367 112.001 135.049 112.038 134.739 112.109L132.721 112.573C130.122 113.17 127.879 114.722 126.484 116.889C125.089 119.056 124.655 121.661 125.278 124.131L127.614 133.373C128.148 135.549 129.418 137.498 131.231 138.921C131.524 139.146 131.832 139.354 132.152 139.545C133.287 140.221 134.553 140.674 135.876 140.878C137.198 141.081 138.55 141.031 139.852 140.729L141.863 140.266C142.395 140.148 142.895 139.927 143.332 139.616C143.983 139.165 144.478 138.541 144.754 137.822C145.03 137.104 145.075 136.323 144.883 135.581Z" fill="#A5E653"/>
<path d="M134.118 131.643C134.994 131.433 135.225 129.274 134.635 126.821C134.045 124.368 132.856 122.551 131.981 122.762C131.105 122.972 130.873 125.132 131.463 127.584C132.053 130.037 133.242 131.854 134.118 131.643Z" fill="#3F3D56"/>
<path d="M127.593 133.601C128.468 133.39 128.7 131.231 128.11 128.778C127.52 126.326 126.331 124.508 125.455 124.719C124.579 124.93 124.348 127.089 124.938 129.542C125.528 131.994 126.717 133.812 127.593 133.601Z" fill="#3F3D56"/>
<path d="M144.888 135.496L140.212 114.263C140.03 113.435 139.628 112.683 139.057 112.102C138.485 111.522 137.77 111.138 137 111L143.382 140C144.013 139.496 144.492 138.799 144.76 137.997C145.028 137.196 145.073 136.325 144.888 135.496Z" fill="white"/>
<path d="M126.641 119.619C126.479 119.031 126.176 118.479 125.751 118C124.929 119.853 124.777 121.88 125.318 123.81L127.941 133.302C128.54 135.537 129.966 137.539 132 139L126.641 119.619Z" fill="#3F3D56"/>
</svg>
